<svg xmlns="http://www.w3.org/2000/svg" width="757.594482421875" height="375.08428955078125" viewBox="4.085941314697266 -212.8983612060547 757.594482421875 375.08428955078125"><title>Neo4j Graph Visualization</title><desc>Created using Neo4j (http://www.neo4j.com/)</desc><g class="layer relationships"><g class="relationship" transform="translate(396.83111418713884 132.40296832073514) rotate(269.68917650087394)"><path class="outline" fill="#A5ABB6" stroke="none" d="M 25 0.5 L 126.94659279264701 0.5 L 126.94659279264701 -0.5 L 25 -0.5 Z M 181.946592792647 0.5 L 283.893185585294 0.5 L 283.893185585294 3.5 L 290.893185585294 0 L 283.893185585294 -3.5 L 283.893185585294 -0.5 L 181.946592792647 -0.5 Z"/><text text-anchor="middle" pointer-events="none" font-size="8px" fill="#000000" x="154.446592792647" y="3" transform="rotate(180 154.446592792647 0)" font-family="sans-serif">DEFINED_BY</text></g><g class="relationship" transform="translate(34.20096057250959 130.63528947950203) rotate(340.2871255672128)"><path class="outline" fill="#A5ABB6" stroke="none" d="M 25 0.5 L 34.497313122814234 0.5 L 34.497313122814234 -0.5 L 25 -0.5 Z M 150.49731312281423 0.5 L 159.99462624562847 0.5 L 159.99462624562847 3.5 L 166.99462624562847 0 L 159.99462624562847 -3.5 L 159.99462624562847 -0.5 L 150.49731312281423 -0.5 Z"/><text text-anchor="middle" pointer-events="none" font-size="8px" fill="#000000" x="92.49731312281423" y="3" font-family="sans-serif">DEPENDS_ON_COMPONENT</text></g><g class="relationship" transform="translate(34.20096057250959 130.63528947950203) rotate(360.27929209398974)"><path class="outline" fill="#A5ABB6" stroke="none" d="M 25 0.5 L 119.8172309786465 0.5 L 119.8172309786465 -0.5 L 25 -0.5 Z M 235.8172309786465 0.5 L 330.634461957293 0.5 L 330.634461957293 3.5 L 337.634461957293 0 L 330.634461957293 -3.5 L 330.634461957293 -0.5 L 235.8172309786465 -0.5 Z"/><text text-anchor="middle" pointer-events="none" font-size="8px" fill="#000000" x="177.8172309786465" y="3" font-family="sans-serif">DEPENDS_ON_COMPONENT</text></g><g class="relationship" transform="translate(34.20096057250959 130.63528947950203) rotate(269.7968880740866)"><path class="outline" fill="#A5ABB6" stroke="none" d="M 25 0.5 L 126.26781445860709 0.5 L 126.26781445860709 -0.5 L 25 -0.5 Z M 181.2678144586071 0.5 L 282.5356289172142 0.5 L 282.5356289172142 3.5 L 289.5356289172142 0 L 282.5356289172142 -3.5 L 282.5356289172142 -0.5 L 181.2678144586071 -0.5 Z"/><text text-anchor="middle" pointer-events="none" font-size="8px" fill="#000000" x="153.7678144586071" y="3" transform="rotate(180 153.7678144586071 0)" font-family="sans-serif">DEFINED_BY</text></g><g class="relationship" transform="translate(33.0859429552693 -183.89836308260573) rotate(360.0653295347098)"><path class="outline" fill="#A5ABB6" stroke="none" d="M 25 0.5 L 137.01586405017866 0.5 L 137.01586405017866 -0.5 L 25 -0.5 Z M 218.01586405017866 0.5 L 330.0317281003573 0.5 L 330.0317281003573 3.5 L 337.0317281003573 0 L 330.0317281003573 -3.5 L 330.0317281003573 -0.5 L 218.01586405017866 -0.5 Z"/><text text-anchor="middle" pointer-events="none" font-size="8px" fill="#000000" x="177.51586405017866" y="3" font-family="sans-serif">HAS_DEPENDENCY</text></g><g class="relationship" transform="translate(33.0859429552693 -183.89836308260573) rotate(390.12773103099016)"><path class="outline" fill="#A5ABB6" stroke="none" d="M 25 0.5 L 61.061342667223 0.5 L 61.061342667223 -0.5 L 25 -0.5 Z M 142.06134266722302 0.5 L 178.122685334446 0.5 L 178.122685334446 3.5 L 185.122685334446 0 L 178.122685334446 -3.5 L 178.122685334446 -0.5 L 142.06134266722302 -0.5 Z"/><text text-anchor="middle" pointer-events="none" font-size="8px" fill="#000000" x="101.561342667223" y="3" font-family="sans-serif">HAS_DEPENDENCY</text></g><g class="relationship" transform="translate(214.9436986100228 65.87419657719352) rotate(380.0909513320647)"><path class="outline" fill="#A5ABB6" stroke="none" d="M 25 0.5 L 35.33634314531241 0.5 L 35.33634314531241 -0.5 L 25 -0.5 Z M 151.3363431453124 0.5 L 161.67268629062482 0.5 L 161.67268629062482 3.5 L 168.67268629062482 0 L 161.67268629062482 -3.5 L 161.67268629062482 -0.5 L 151.3363431453124 -0.5 Z"/><text text-anchor="middle" pointer-events="none" font-size="8px" fill="#000000" x="93.33634314531241" y="3" font-family="sans-serif">DEPENDS_ON_COMPONENT</text></g><g class="relationship" transform="translate(214.9436986100228 65.87419657719352) rotate(269.9520210606063)"><path class="outline" fill="#A5ABB6" stroke="none" d="M 25 0.5 L 41.152927411542436 0.5 L 41.152927411542436 -0.5 L 25 -0.5 Z M 96.15292741154244 0.5 L 112.30585482308487 0.5 L 112.30585482308487 3.5 L 119.30585482308487 0 L 112.30585482308487 -3.5 L 112.30585482308487 -0.5 L 96.15292741154244 -0.5 Z"/><text text-anchor="middle" pointer-events="none" font-size="8px" fill="#000000" x="68.65292741154244" y="3" transform="rotate(180 68.65292741154244 0)" font-family="sans-serif">DEFINED_BY</text></g><g class="relationship" transform="translate(214.82285827741222 -78.4316076506173) rotate(329.77151994548365)"><path class="outline" fill="#A5ABB6" stroke="none" d="M 25 0.5 L 60.33416200853485 0.5 L 60.33416200853485 -0.5 L 25 -0.5 Z M 141.33416200853486 0.5 L 176.6683240170697 0.5 L 176.6683240170697 3.5 L 183.6683240170697 0 L 176.6683240170697 -3.5 L 176.6683240170697 -0.5 L 141.33416200853486 -0.5 Z"/><text text-anchor="middle" pointer-events="none" font-size="8px" fill="#000000" x="100.83416200853485" y="3" font-family="sans-serif">HAS_DEPENDENCY</text></g><g class="relationship" transform="translate(732.680399987063 129.16651868108562) rotate(269.69235387403194)"><path class="outline" fill="#A5ABB6" stroke="none" d="M 25 0.5 L 124.47363508557228 0.5 L 124.47363508557228 -0.5 L 25 -0.5 Z M 179.47363508557228 0.5 L 278.94727017114457 0.5 L 278.94727017114457 3.5 L 285.94727017114457 0 L 278.94727017114457 -3.5 L 278.94727017114457 -0.5 L 179.47363508557228 -0.5 Z"/><text text-anchor="middle" pointer-events="none" font-size="8px" fill="#000000" x="151.97363508557228" y="3" transform="rotate(180 151.97363508557228 0)" font-family="sans-serif">DEFINED_BY</text></g><g class="relationship" transform="translate(595.4124009378422 133.18594072364724) rotate(180.2259063904247)"><path class="outline" fill="#A5ABB6" stroke="none" d="M 25 0.5 L 37.791415154267995 0.5 L 37.791415154267995 -0.5 L 25 -0.5 Z M 153.791415154268 0.5 L 166.582830308536 0.5 L 166.582830308536 3.5 L 173.582830308536 0 L 166.582830308536 -3.5 L 166.582830308536 -0.5 L 153.791415154268 -0.5 Z"/><text text-anchor="middle" pointer-events="none" font-size="8px" fill="#000000" x="95.791415154268" y="3" transform="rotate(180 95.791415154268 0)" font-family="sans-serif">DEPENDS_ON_COMPONENT</text></g><g class="relationship" transform="translate(595.4124009378422 133.18594072364724) rotate(269.64411048213225)"><path class="outline" fill="#A5ABB6" stroke="none" d="M 25 0.5 L 126.75821589200356 0.5 L 126.75821589200356 -0.5 L 25 -0.5 Z M 181.75821589200356 0.5 L 283.5164317840071 0.5 L 283.5164317840071 3.5 L 290.5164317840071 0 L 283.5164317840071 -3.5 L 283.5164317840071 -0.5 L 181.75821589200356 -0.5 Z"/><text text-anchor="middle" pointer-events="none" font-size="8px" fill="#000000" x="154.25821589200356" y="3" transform="rotate(180 154.25821589200356 0)" font-family="sans-serif">DEFINED_BY</text></g><g class="relationship" transform="translate(593.4526009371034 -182.32440444694953) rotate(180.3354375788557)"><path class="outline" fill="#A5ABB6" stroke="none" d="M 25 0.5 L 55.1692821207662 0.5 L 55.1692821207662 -0.5 L 25 -0.5 Z M 136.16928212076618 0.5 L 166.3385642415324 0.5 L 166.3385642415324 3.5 L 173.3385642415324 0 L 166.3385642415324 -3.5 L 166.3385642415324 -0.5 L 136.16928212076618 -0.5 Z"/><text text-anchor="middle" pointer-events="none" font-size="8px" fill="#000000" x="95.6692821207662" y="3" transform="rotate(180 95.6692821207662 0)" font-family="sans-serif">HAS_DEPENDENCY</text></g></g><g class="layer nodes"><g class="node" transform="translate(396.83111418713884,132.40296832073514)"><circle class="outline" cx="0" cy="0" r="25" fill="#D9C8AE" stroke="#c0a378" stroke-width="2px"/><text text-anchor="middle" pointer-events="none" font-family="sans-serif" dy="1.5625" font-size="25" fill="#2A2C34"/><text text-anchor="middle" pointer-events="none" x="0" y="5" font-size="10px" fill="#2A2C34" font-family="sans-serif"> model</text></g><g class="node" transform="translate(395.11743571849496,-183.48556899160724)"><circle class="outline" cx="0" cy="0" r="25" fill="#F79767" stroke="#f36924" stroke-width="2px"/><text text-anchor="middle" pointer-events="none" font-family="sans-serif" dy="1.5625" font-size="25" fill="#FFFFFF"/><text text-anchor="middle" pointer-events="none" x="0" y="5" font-size="10px" fill="#FFFFFF" font-family="sans-serif"> Model</text></g><g class="node" transform="translate(34.20096057250959,130.63528947950203)"><circle class="outline" cx="0" cy="0" r="25" fill="#D9C8AE" stroke="#c0a378" stroke-width="2px"/><text text-anchor="middle" pointer-events="none" font-family="sans-serif" dy="1.5625" font-size="25" fill="#2A2C34"/><text text-anchor="middle" pointer-events="none" x="0" y="5" font-size="10px" fill="#2A2C34" font-family="sans-serif"> owner</text></g><g class="node" transform="translate(33.0859429552693,-183.89836308260573)"><circle class="outline" cx="0" cy="0" r="25" fill="#F79767" stroke="#f36924" stroke-width="2px"/><text text-anchor="middle" pointer-events="none" font-family="sans-serif" dy="1.5625" font-size="25" fill="#FFFFFF"/><text text-anchor="middle" pointer-events="none" x="0" y="5" font-size="10px" fill="#FFFFFF" font-family="sans-serif"> Owner</text></g><g class="node" transform="translate(214.9436986100228,65.87419657719352)"><circle class="outline" cx="0" cy="0" r="25" fill="#D9C8AE" stroke="#c0a378" stroke-width="2px"/><text text-anchor="middle" pointer-events="none" font-family="sans-serif" dy="1.5625" font-size="25" fill="#2A2C34"/><text text-anchor="middle" pointer-events="none" x="0" y="5" font-size="10px" fill="#2A2C34" font-family="sans-serif"> visit</text></g><g class="node" transform="translate(214.82285827741222,-78.4316076506173)"><circle class="outline" cx="0" cy="0" r="25" fill="#F79767" stroke="#f36924" stroke-width="2px"/><text text-anchor="middle" pointer-events="none" font-family="sans-serif" dy="1.5625" font-size="25" fill="#FFFFFF"/><text text-anchor="middle" pointer-events="none" x="0" y="5" font-size="10px" fill="#FFFFFF" font-family="sans-serif"> Visit</text></g><g class="node" transform="translate(732.680399987063,129.16651868108562)"><circle class="outline" cx="0" cy="0" r="25" fill="#D9C8AE" stroke="#c0a378" stroke-width="2px"/><text text-anchor="middle" pointer-events="none" font-family="sans-serif" dy="1.5625" font-size="25" fill="#2A2C34"/><text text-anchor="middle" pointer-events="none" x="0" y="5" font-size="10px" fill="#2A2C34" font-family="sans-serif"> system</text></g><g class="node" transform="translate(731.0107959744502,-181.77626906181706)"><circle class="outline" cx="0" cy="0" r="25" fill="#F79767" stroke="#f36924" stroke-width="2px"/><text text-anchor="middle" pointer-events="none" font-family="sans-serif" dy="1.5625" font-size="25" fill="#FFFFFF"/><text text-anchor="middle" pointer-events="none" x="0" y="5" font-size="10px" fill="#FFFFFF" font-family="sans-serif"> System</text></g><g class="node" transform="translate(595.4124009378422,133.18594072364724)"><circle class="outline" cx="0" cy="0" r="25" fill="#D9C8AE" stroke="#c0a378" stroke-width="2px"/><text text-anchor="middle" pointer-events="none" font-family="sans-serif" dy="1.5625" font-size="25" fill="#2A2C34"/><text text-anchor="middle" pointer-events="none" x="0" y="5" font-size="10px" fill="#2A2C34" font-family="sans-serif"> vet</text></g><g class="node" transform="translate(593.4526009371034,-182.32440444694953)"><circle class="outline" cx="0" cy="0" r="25" fill="#F79767" stroke="#f36924" stroke-width="2px"/><text text-anchor="middle" pointer-events="none" font-family="sans-serif" dy="1.5625" font-size="25" fill="#FFFFFF"/><text text-anchor="middle" pointer-events="none" x="0" y="5" font-size="10px" fill="#FFFFFF" font-family="sans-serif"> Vet</text></g></g></svg>